<svg viewBox="455 334.9823 374.4567 83.0354" width="5000" height="1108.7450164464942" xmlns="http://www.w3.org/2000/svg" xmlns:xlink="http://www.w3.org/1999/xlink" preserveAspectRatio="none"><defs></defs><style>.companyName {fill:#EBE7D9;fill-opacity:1;}.icon3 {fill:#F55139;fill-opacity:1;}.icon3-str {stroke:#F55139;stroke-opacity:1;}</style><g opacity="1" transform="rotate(0 455 397.3409)">
<svg width="374.4567" height="20.6768" x="455" y="397.3409" version="1.1" preserveAspectRatio="none" viewBox="-0.16 -30.28 710.64 39.24">
  <g transform="matrix(1 0 0 1 0 0)" class="icon3"><path id="id-6izo4zJp35" d="M26.04-28L14.92-9.68L14.92 0L10.96 0L10.96-9.76L-0.16-28L4.12-28L13.08-13.24L22.08-28L26.04-28Z M47.48-10.48Q47.48-10.04 47.40-9.32L47.40-9.32L30.20-9.32Q30.56-6.52 32.66-4.82Q34.76-3.12 37.88-3.12L37.88-3.12Q41.68-3.12 44-5.68L44-5.68L46.12-3.20Q44.68-1.52 42.54-0.64Q40.40 0.24 37.76 0.24L37.76 0.24Q34.40 0.24 31.80-1.14Q29.20-2.52 27.78-5Q26.36-7.48 26.36-10.60L26.36-10.60Q26.36-13.68 27.74-16.16Q29.12-18.64 31.54-20.02Q33.96-21.40 37-21.40L37-21.40Q40.04-21.40 42.42-20.02Q44.80-18.64 46.14-16.16Q47.48-13.68 47.48-10.48L47.48-10.48ZM37-18.16Q34.24-18.16 32.38-16.48Q30.52-14.80 30.20-12.08L30.20-12.08L43.80-12.08Q43.48-14.76 41.62-16.46Q39.76-18.16 37-18.16L37-18.16Z M65.32-21.40Q69.36-21.40 71.74-19.06Q74.12-16.72 74.12-12.20L74.12-12.20L74.12 0L70.28 0L70.28-11.76Q70.28-14.84 68.80-16.40Q67.32-17.96 64.56-17.96L64.56-17.96Q61.44-17.96 59.64-16.14Q57.84-14.32 57.84-10.92L57.84-10.92L57.84 0L54 0L54-21.20L57.68-21.20L57.68-18Q58.84-19.64 60.82-20.52Q62.80-21.40 65.32-21.40L65.32-21.40Z M82.44 0L82.44-21.20L86.28-21.20L86.28 0L82.44 0ZM84.36-25.28Q83.24-25.28 82.50-26Q81.76-26.72 81.76-27.76L81.76-27.76Q81.76-28.80 82.50-29.54Q83.24-30.28 84.36-30.28L84.36-30.28Q85.48-30.28 86.22-29.58Q86.96-28.88 86.96-27.84L86.96-27.84Q86.96-26.76 86.22-26.02Q85.48-25.28 84.36-25.28L84.36-25.28Z M123.40-21.20L127.04-21.20L127.04-2.88Q127.04 2.68 124.28 5.34Q121.52 8 116.04 8L116.04 8Q113.04 8 110.32 7.18Q107.60 6.36 105.92 4.84L105.92 4.84L107.76 1.88Q109.24 3.16 111.42 3.90Q113.60 4.64 115.92 4.64L115.92 4.64Q119.64 4.64 121.42 2.88Q123.20 1.12 123.20-2.48L123.20-2.48L123.20-4.16Q121.84-2.52 119.86-1.70Q117.88-0.88 115.56-0.88L115.56-0.88Q112.52-0.88 110.06-2.18Q107.60-3.48 106.20-5.82Q104.80-8.16 104.80-11.16L104.80-11.16Q104.80-14.16 106.20-16.50Q107.60-18.84 110.06-20.12Q112.52-21.40 115.56-21.40L115.56-21.40Q117.96-21.40 120.02-20.52Q122.08-19.64 123.40-17.92L123.40-17.92L123.40-21.20ZM116-4.24Q118.08-4.24 119.74-5.12Q121.40-6 122.34-7.58Q123.28-9.16 123.28-11.16L123.28-11.16Q123.28-14.24 121.24-16.14Q119.20-18.04 116-18.04L116-18.04Q112.76-18.04 110.72-16.14Q108.68-14.24 108.68-11.16L108.68-11.16Q108.68-9.16 109.62-7.58Q110.56-6 112.22-5.12Q113.88-4.24 116-4.24L116-4.24Z M135.56 0L135.56-21.20L139.40-21.20L139.40 0L135.56 0ZM137.48-25.28Q136.36-25.28 135.62-26Q134.88-26.72 134.88-27.76L134.88-27.76Q134.88-28.80 135.62-29.54Q136.36-30.28 137.48-30.28L137.48-30.28Q138.60-30.28 139.34-29.58Q140.08-28.88 140.08-27.84L140.08-27.84Q140.08-26.76 139.34-26.02Q138.60-25.28 137.48-25.28L137.48-25.28Z M159.16-21.40Q162.24-21.40 164.68-20.04Q167.12-18.68 168.50-16.24Q169.88-13.80 169.88-10.60L169.88-10.60Q169.88-7.40 168.50-4.94Q167.12-2.48 164.68-1.12Q162.24 0.24 159.16 0.24L159.16 0.24Q156.80 0.24 154.84-0.68Q152.88-1.60 151.60-3.36L151.60-3.36L151.60 0L147.92 0L147.92-29.68L151.76-29.68L151.76-18Q153.04-19.68 154.96-20.54Q156.88-21.40 159.16-21.40L159.16-21.40ZM158.84-3.12Q160.88-3.12 162.50-4.06Q164.12-5 165.06-6.70Q166.00-8.40 166.00-10.60L166.00-10.60Q166.00-12.80 165.06-14.50Q164.12-16.20 162.50-17.12Q160.88-18.04 158.84-18.04L158.84-18.04Q156.84-18.04 155.20-17.12Q153.56-16.20 152.64-14.50Q151.72-12.80 151.72-10.60L151.72-10.60Q151.72-8.40 152.64-6.70Q153.56-5 155.20-4.06Q156.84-3.12 158.84-3.12L158.84-3.12Z M176.40 0L176.40-21.20L180.24-21.20L180.24 0L176.40 0ZM178.32-25.28Q177.20-25.28 176.46-26Q175.72-26.72 175.72-27.76L175.72-27.76Q175.72-28.80 176.46-29.54Q177.20-30.28 178.32-30.28L178.32-30.28Q179.44-30.28 180.18-29.58Q180.92-28.88 180.92-27.84L180.92-27.84Q180.92-26.76 180.18-26.02Q179.44-25.28 178.32-25.28L178.32-25.28Z M189.72-5.24Q190.84-5.24 191.58-4.46Q192.32-3.68 192.32-2.52L192.32-2.52Q192.32-1.92 192.18-1.36Q192.04-0.80 191.64 0.36L191.64 0.36L189.76 5.92L187.24 5.92L188.72-0.04Q187.96-0.32 187.50-0.98Q187.04-1.64 187.04-2.52L187.04-2.52Q187.04-3.72 187.80-4.48Q188.56-5.24 189.72-5.24L189.72-5.24Z M226.00-21.20L229.76-21.20L219.48 2.12Q218.12 5.36 216.30 6.68Q214.48 8 211.92 8L211.92 8Q210.36 8 208.90 7.50Q207.44 7 206.48 6.04L206.48 6.04L208.12 3.16Q209.76 4.72 211.92 4.72L211.92 4.72Q213.32 4.72 214.26 3.98Q215.20 3.24 215.96 1.44L215.96 1.44L216.64-0.04L207.28-21.20L211.28-21.20L218.68-4.24L226.00-21.20Z M253.12-10.48Q253.12-10.04 253.04-9.32L253.04-9.32L235.84-9.32Q236.20-6.52 238.30-4.82Q240.40-3.12 243.52-3.12L243.52-3.12Q247.32-3.12 249.64-5.68L249.64-5.68L251.76-3.20Q250.32-1.52 248.18-0.64Q246.04 0.24 243.40 0.24L243.40 0.24Q240.04 0.24 237.44-1.14Q234.84-2.52 233.42-5Q232.00-7.48 232.00-10.60L232.00-10.60Q232.00-13.68 233.38-16.16Q234.76-18.64 237.18-20.02Q239.60-21.40 242.64-21.40L242.64-21.40Q245.68-21.40 248.06-20.02Q250.44-18.64 251.78-16.16Q253.12-13.68 253.12-10.48L253.12-10.48ZM242.64-18.16Q239.88-18.16 238.02-16.48Q236.16-14.80 235.84-12.08L235.84-12.08L249.44-12.08Q249.12-14.76 247.26-16.46Q245.40-18.16 242.64-18.16L242.64-18.16Z M270.96-21.40Q275.00-21.40 277.38-19.06Q279.76-16.72 279.76-12.20L279.76-12.20L279.76 0L275.92 0L275.92-11.76Q275.92-14.84 274.44-16.40Q272.96-17.96 270.20-17.96L270.20-17.96Q267.08-17.96 265.28-16.14Q263.48-14.32 263.48-10.92L263.48-10.92L263.48 0L259.64 0L259.64-21.20L263.32-21.20L263.32-18Q264.48-19.64 266.46-20.52Q268.44-21.40 270.96-21.40L270.96-21.40Z M288.08 0L288.08-21.20L291.92-21.20L291.92 0L288.08 0ZM290.00-25.28Q288.88-25.28 288.14-26Q287.40-26.72 287.40-27.76L287.40-27.76Q287.40-28.80 288.14-29.54Q288.88-30.28 290.00-30.28L290.00-30.28Q291.12-30.28 291.86-29.58Q292.60-28.88 292.60-27.84L292.60-27.84Q292.60-26.76 291.86-26.02Q291.12-25.28 290.00-25.28L290.00-25.28Z M300.44 0L300.44-29.68L304.28-29.68L304.28 0L300.44 0Z M331.96-10.48Q331.96-10.04 331.88-9.32L331.88-9.32L314.68-9.32Q315.04-6.52 317.14-4.82Q319.24-3.12 322.36-3.12L322.36-3.12Q326.16-3.12 328.48-5.68L328.48-5.68L330.60-3.20Q329.16-1.52 327.02-0.64Q324.88 0.24 322.24 0.24L322.24 0.24Q318.88 0.24 316.28-1.14Q313.68-2.52 312.26-5Q310.84-7.48 310.84-10.60L310.84-10.60Q310.84-13.68 312.22-16.16Q313.60-18.64 316.02-20.02Q318.44-21.40 321.48-21.40L321.48-21.40Q324.52-21.40 326.90-20.02Q329.28-18.64 330.62-16.16Q331.96-13.68 331.96-10.48L331.96-10.48ZM321.48-18.16Q318.72-18.16 316.86-16.48Q315.00-14.80 314.68-12.08L314.68-12.08L328.28-12.08Q327.96-14.76 326.10-16.46Q324.24-18.16 321.48-18.16L321.48-18.16Z M349.80-21.40Q353.84-21.40 356.22-19.06Q358.60-16.72 358.60-12.20L358.60-12.20L358.60 0L354.76 0L354.76-11.76Q354.76-14.84 353.28-16.40Q351.80-17.96 349.04-17.96L349.04-17.96Q345.92-17.96 344.12-16.14Q342.32-14.32 342.32-10.92L342.32-10.92L342.32 0L338.48 0L338.48-21.20L342.16-21.20L342.16-18Q343.32-19.64 345.30-20.52Q347.28-21.40 349.80-21.40L349.80-21.40Z M393.44-21.40Q397.44-21.40 399.78-19.08Q402.12-16.76 402.12-12.20L402.12-12.20L402.12 0L398.28 0L398.28-11.76Q398.28-14.84 396.86-16.40Q395.44-17.96 392.80-17.96L392.80-17.96Q389.88-17.96 388.16-16.14Q386.44-14.32 386.44-10.92L386.44-10.92L386.44 0L382.60 0L382.60-11.76Q382.60-14.84 381.18-16.40Q379.76-17.96 377.12-17.96L377.12-17.96Q374.20-17.96 372.48-16.14Q370.76-14.32 370.76-10.92L370.76-10.92L370.76 0L366.92 0L366.92-21.20L370.60-21.20L370.60-18.04Q371.76-19.68 373.64-20.54Q375.52-21.40 377.92-21.40L377.92-21.40Q380.40-21.40 382.32-20.40Q384.24-19.40 385.28-17.48L385.28-17.48Q386.48-19.32 388.62-20.36Q390.76-21.40 393.44-21.40L393.44-21.40Z M410.40 0L410.40-21.20L414.24-21.20L414.24 0L410.40 0ZM412.32-25.28Q411.20-25.28 410.46-26Q409.72-26.72 409.72-27.76L409.72-27.76Q409.72-28.80 410.46-29.54Q411.20-30.28 412.32-30.28L412.32-30.28Q413.44-30.28 414.18-29.58Q414.92-28.88 414.92-27.84L414.92-27.84Q414.92-26.76 414.18-26.02Q413.44-25.28 412.32-25.28L412.32-25.28Z M428.84 0.24Q426.24 0.24 423.84-0.46Q421.44-1.16 420.08-2.24L420.08-2.24L421.68-5.28Q423.08-4.28 425.08-3.68Q427.08-3.08 429.12-3.08L429.12-3.08Q434.16-3.08 434.16-5.96L434.16-5.96Q434.16-6.92 433.48-7.48Q432.80-8.04 431.78-8.30Q430.76-8.56 428.88-8.88L428.88-8.88Q426.32-9.28 424.70-9.80Q423.08-10.32 421.92-11.56Q420.76-12.80 420.76-15.04L420.76-15.04Q420.76-17.92 423.16-19.66Q425.56-21.40 429.60-21.40L429.60-21.40Q431.72-21.40 433.84-20.88Q435.96-20.36 437.32-19.48L437.32-19.48L435.68-16.44Q433.08-18.12 429.56-18.12L429.56-18.12Q427.12-18.12 425.84-17.32Q424.56-16.52 424.56-15.20L424.56-15.20Q424.56-14.16 425.28-13.56Q426.00-12.96 427.06-12.68Q428.12-12.40 430.04-12.04L430.04-12.04Q432.60-11.60 434.18-11.10Q435.76-10.60 436.88-9.40Q438.00-8.20 438.00-6.04L438.00-6.04Q438.00-3.16 435.54-1.46Q433.08 0.24 428.84 0.24L428.84 0.24ZM428.04 8.96Q425.96 8.96 424.48 8.08L424.48 8.08L425.32 6.12Q426.52 6.80 428.04 6.80L428.04 6.80Q430.28 6.80 430.28 5.20L430.28 5.20Q430.28 4.48 429.72 4.06Q429.16 3.64 428.00 3.64L428.00 3.64L426.92 3.64L427.92-0.28L430.12-0.28L429.52 2Q431.20 2.16 432.10 3.06Q433.00 3.96 433.00 5.32L433.00 5.32Q433.00 7 431.64 7.98Q430.28 8.96 428.04 8.96L428.04 8.96Z M467.20-21.40Q470.28-21.40 472.72-20.04Q475.16-18.68 476.54-16.24Q477.92-13.80 477.92-10.60L477.92-10.60Q477.92-7.40 476.54-4.94Q475.16-2.48 472.72-1.12Q470.28 0.24 467.20 0.24L467.20 0.24Q464.84 0.24 462.88-0.68Q460.92-1.60 459.64-3.36L459.64-3.36L459.64 0L455.96 0L455.96-29.68L459.80-29.68L459.80-18Q461.08-19.68 463.00-20.54Q464.92-21.40 467.20-21.40L467.20-21.40ZM466.88-3.12Q468.92-3.12 470.54-4.06Q472.16-5 473.10-6.70Q474.04-8.40 474.04-10.60L474.04-10.60Q474.04-12.80 473.10-14.50Q472.16-16.20 470.54-17.12Q468.92-18.04 466.88-18.04L466.88-18.04Q464.88-18.04 463.24-17.12Q461.60-16.20 460.68-14.50Q459.76-12.80 459.76-10.60L459.76-10.60Q459.76-8.40 460.68-6.70Q461.60-5 463.24-4.06Q464.88-3.12 466.88-3.12L466.88-3.12Z M484.44 0L484.44-21.20L488.28-21.20L488.28 0L484.44 0ZM486.36-25.28Q485.24-25.28 484.50-26Q483.76-26.72 483.76-27.76L483.76-27.76Q483.76-28.80 484.50-29.54Q485.24-30.28 486.36-30.28L486.36-30.28Q487.48-30.28 488.22-29.58Q488.96-28.88 488.96-27.84L488.96-27.84Q488.96-26.76 488.22-26.02Q487.48-25.28 486.36-25.28L486.36-25.28Z M496.80 0L496.80-29.68L500.64-29.68L500.64 0L496.80 0Z M525.80-21.20L529.44-21.20L529.44-2.88Q529.44 2.68 526.68 5.34Q523.92 8 518.44 8L518.44 8Q515.44 8 512.72 7.18Q510.00 6.36 508.32 4.84L508.32 4.84L510.16 1.88Q511.64 3.16 513.82 3.90Q516.00 4.64 518.32 4.64L518.32 4.64Q522.04 4.64 523.82 2.88Q525.60 1.12 525.60-2.48L525.60-2.48L525.60-4.16Q524.24-2.52 522.26-1.70Q520.28-0.88 517.96-0.88L517.96-0.88Q514.92-0.88 512.46-2.18Q510.00-3.48 508.60-5.82Q507.20-8.16 507.20-11.16L507.20-11.16Q507.20-14.16 508.60-16.50Q510.00-18.84 512.46-20.12Q514.92-21.40 517.96-21.40L517.96-21.40Q520.36-21.40 522.42-20.52Q524.48-19.64 525.80-17.92L525.80-17.92L525.80-21.20ZM518.40-4.24Q520.48-4.24 522.14-5.12Q523.80-6 524.74-7.58Q525.68-9.16 525.68-11.16L525.68-11.16Q525.68-14.24 523.64-16.14Q521.60-18.04 518.40-18.04L518.40-18.04Q515.16-18.04 513.12-16.14Q511.08-14.24 511.08-11.16L511.08-11.16Q511.08-9.16 512.02-7.58Q512.96-6 514.62-5.12Q516.28-4.24 518.40-4.24L518.40-4.24Z M537.96 0L537.96-21.20L541.80-21.20L541.80 0L537.96 0ZM539.88-25.28Q538.76-25.28 538.02-26Q537.28-26.72 537.28-27.76L537.28-27.76Q537.28-28.80 538.02-29.54Q538.76-30.28 539.88-30.28L539.88-30.28Q541.00-30.28 541.74-29.58Q542.48-28.88 542.48-27.84L542.48-27.84Q542.48-26.76 541.74-26.02Q541.00-25.28 539.88-25.28L539.88-25.28Z M556.40 0.24Q553.80 0.24 551.40-0.46Q549-1.16 547.64-2.24L547.64-2.24L549.24-5.28Q550.64-4.28 552.64-3.68Q554.64-3.08 556.68-3.08L556.68-3.08Q561.72-3.08 561.72-5.96L561.72-5.96Q561.72-6.92 561.04-7.48Q560.36-8.04 559.34-8.30Q558.32-8.56 556.44-8.88L556.44-8.88Q553.88-9.28 552.26-9.80Q550.64-10.32 549.48-11.56Q548.32-12.80 548.32-15.04L548.32-15.04Q548.32-17.92 550.72-19.66Q553.12-21.40 557.16-21.40L557.16-21.40Q559.28-21.40 561.40-20.88Q563.52-20.36 564.88-19.48L564.88-19.48L563.24-16.44Q560.64-18.12 557.12-18.12L557.12-18.12Q554.68-18.12 553.40-17.32Q552.12-16.52 552.12-15.20L552.12-15.20Q552.12-14.16 552.84-13.56Q553.56-12.96 554.62-12.68Q555.68-12.40 557.60-12.04L557.60-12.04Q560.16-11.60 561.74-11.10Q563.32-10.60 564.44-9.40Q565.56-8.20 565.56-6.04L565.56-6.04Q565.56-3.16 563.10-1.46Q560.64 0.24 556.40 0.24L556.40 0.24Z M579.28-21.40Q583.68-21.40 586.02-19.24Q588.36-17.08 588.36-12.80L588.36-12.80L588.36 0L584.72 0L584.72-2.80Q583.76-1.32 581.98-0.54Q580.20 0.24 577.76 0.24L577.76 0.24Q574.20 0.24 572.06-1.48Q569.92-3.20 569.92-6L569.92-6Q569.92-8.80 571.96-10.50Q574-12.20 578.44-12.20L578.44-12.20L584.52-12.20L584.52-12.96Q584.52-15.44 583.08-16.76Q581.64-18.08 578.84-18.08L578.84-18.08Q576.96-18.08 575.16-17.46Q573.36-16.84 572.12-15.80L572.12-15.80L570.52-18.68Q572.16-20 574.44-20.70Q576.72-21.40 579.28-21.40L579.28-21.40ZM578.40-2.72Q580.60-2.72 582.20-3.70Q583.80-4.68 584.52-6.48L584.52-6.48L584.52-9.44L578.60-9.44Q573.72-9.44 573.72-6.16L573.72-6.16Q573.72-4.56 574.96-3.64Q576.20-2.72 578.40-2.72L578.40-2.72Z M611.28-21.20L615.04-21.20L604.76 2.12Q603.40 5.36 601.58 6.68Q599.76 8 597.20 8L597.20 8Q595.64 8 594.18 7.50Q592.72 7 591.76 6.04L591.76 6.04L593.40 3.16Q595.04 4.72 597.20 4.72L597.20 4.72Q598.60 4.72 599.54 3.98Q600.48 3.24 601.24 1.44L601.24 1.44L601.92-0.04L592.56-21.20L596.56-21.20L603.96-4.24L611.28-21.20Z M626.88-21.40Q631.28-21.40 633.62-19.24Q635.96-17.08 635.96-12.80L635.96-12.80L635.96 0L632.32 0L632.32-2.80Q631.36-1.32 629.58-0.54Q627.80 0.24 625.36 0.24L625.36 0.24Q621.80 0.24 619.66-1.48Q617.52-3.20 617.52-6L617.52-6Q617.52-8.80 619.56-10.50Q621.60-12.20 626.04-12.20L626.04-12.20L632.12-12.20L632.12-12.96Q632.12-15.44 630.68-16.76Q629.24-18.08 626.44-18.08L626.44-18.08Q624.56-18.08 622.76-17.46Q620.96-16.84 619.72-15.80L619.72-15.80L618.12-18.68Q619.76-20 622.04-20.70Q624.32-21.40 626.88-21.40L626.88-21.40ZM626.00-2.72Q628.20-2.72 629.80-3.70Q631.40-4.68 632.12-6.48L632.12-6.48L632.12-9.44L626.20-9.44Q621.32-9.44 621.32-6.16L621.32-6.16Q621.32-4.56 622.56-3.64Q623.80-2.72 626.00-2.72L626.00-2.72Z M647.96-17.64Q648.96-19.48 650.92-20.44Q652.88-21.40 655.68-21.40L655.68-21.40L655.68-17.68Q655.36-17.72 654.80-17.72L654.80-17.72Q651.68-17.72 649.90-15.86Q648.12-14 648.12-10.56L648.12-10.56L648.12 0L644.28 0L644.28-21.20L647.96-21.20L647.96-17.64Z M661.60 0L661.60-29.68L665.44-29.68L665.44 0L661.60 0Z M681.68-21.40Q686.08-21.40 688.42-19.24Q690.76-17.08 690.76-12.80L690.76-12.80L690.76 0L687.12 0L687.12-2.80Q686.16-1.32 684.38-0.54Q682.60 0.24 680.16 0.24L680.16 0.24Q676.60 0.24 674.46-1.48Q672.32-3.20 672.32-6L672.32-6Q672.32-8.80 674.36-10.50Q676.40-12.20 680.84-12.20L680.84-12.20L686.92-12.20L686.92-12.96Q686.92-15.44 685.48-16.76Q684.04-18.08 681.24-18.08L681.24-18.08Q679.36-18.08 677.56-17.46Q675.76-16.84 674.52-15.80L674.52-15.80L672.92-18.68Q674.56-20 676.84-20.70Q679.12-21.40 681.68-21.40L681.68-21.40ZM680.80-2.72Q683.00-2.72 684.60-3.70Q686.20-4.68 686.92-6.48L686.92-6.48L686.92-9.44L681.00-9.44Q676.12-9.44 676.12-6.16L676.12-6.16Q676.12-4.56 677.36-3.64Q678.60-2.72 680.80-2.72L680.80-2.72Z M702.76-17.64Q703.76-19.48 705.72-20.44Q707.68-21.40 710.48-21.40L710.48-21.40L710.48-17.68Q710.16-17.72 709.60-17.72L709.60-17.72Q706.48-17.72 704.70-15.86Q702.92-14 702.92-10.56L702.92-10.56L702.92 0L699.08 0L699.08-21.20L702.76-21.20L702.76-17.64Z"/></g>
</svg>
</g><g opacity="1" transform="rotate(0 525.0638 334.9823)">
<svg width="301.4347" height="49.2305" x="525.0638" y="334.9823" version="1.1" preserveAspectRatio="none" viewBox="1.16 -28.48 177.32000000000002 28.96">
  <g transform="matrix(1 0 0 1 0 0)" class="companyName"><path id="id-D6z1nYkh7" d="M18.08-28Q23.32-28 26.18-25.70Q29.04-23.40 29.04-19.28L29.04-19.28Q29.04-15.76 27.38-13.14Q25.72-10.52 22.66-9.12Q19.60-7.72 15.44-7.72L15.44-7.72L9.20-7.72L7.68 0L1.16 0L6.76-28L18.08-28ZM15.72-13Q18.96-13 20.72-14.48Q22.48-15.96 22.48-18.72L22.48-18.72Q22.48-20.72 21.14-21.72Q19.80-22.72 17.28-22.72L17.28-22.72L12.20-22.72L10.24-13L15.72-13Z M45.16 0.48Q40.96 0.48 37.82-1.04Q34.68-2.56 33-5.32Q31.32-8.08 31.32-11.68L31.32-11.68Q31.32-16.44 33.50-20.26Q35.68-24.08 39.64-26.28Q43.60-28.48 48.72-28.48L48.72-28.48Q52.48-28.48 55.36-27.20Q58.24-25.92 59.72-23.52L59.72-23.52L55.04-19.68Q52.80-22.96 48.28-22.96L48.28-22.96Q45.20-22.96 42.84-21.52Q40.48-20.08 39.18-17.60Q37.88-15.12 37.88-12.08L37.88-12.08Q37.88-8.84 39.94-6.94Q42-5.04 45.72-5.04L45.72-5.04Q50.16-5.04 53.16-8.28L53.16-8.28L57-4.36Q52.84 0.48 45.16 0.48L45.16 0.48Z M95.88-28L102.36-28L96.76 0L90.28 0L92.56-11.40L79.88-11.40L77.60 0L71.08 0L76.68-28L83.20-28L81-17L93.68-17L95.88-28Z M124.64 0L123.32-6L110.28-6L106.64 0L99.72 0L117.84-28L124.24-28L131.12 0L124.64 0ZM113.28-10.92L122.24-10.92L119.88-21.72L113.28-10.92Z M158.92-28L165.32-28L159.72 0L154.40 0L143.96-17.52L140.44 0L134.04 0L139.64-28L145-28L155.44-10.44L158.92-28Z M166.36 0L171.96-28L178.48-28L172.88 0L166.36 0Z"/></g>
</svg>
</g><g opacity="1" transform="rotate(0 463.5014 334.9823)">
<svg width="61.5624" height="49.2305" x="463.5014" y="334.9823" version="1.1" preserveAspectRatio="none" viewBox="-4.6 -33.68 47.12 37.68">
  <g transform="matrix(1 0 0 1 0 0)" class="icon3"><path id="id-hTdFi603-2" d="M-4.60 4L15.88-33.68L24.12-33.68L3.64 4L-4.60 4Z M13.80 4L34.28-33.68L42.52-33.68L22.04 4L13.80 4Z"/></g>
</svg>
</g></svg>